<?xml version="1.0" encoding="utf-8" standalone="no"?>
<!DOCTYPE svg PUBLIC "-//W3C//DTD SVG 1.1//EN"
  "http://www.w3.org/Graphics/SVG/1.1/DTD/svg11.dtd">
<svg xmlns:xlink="http://www.w3.org/1999/xlink" width="720pt" height="720pt" viewBox="0 0 720 720" xmlns="http://www.w3.org/2000/svg" version="1.1">
 <metadata>
  <rdf:RDF xmlns:dc="http://purl.org/dc/elements/1.1/" xmlns:cc="http://creativecommons.org/ns#" xmlns:rdf="http://www.w3.org/1999/02/22-rdf-syntax-ns#">
   <cc:Work>
    <dc:type rdf:resource="http://purl.org/dc/dcmitype/StillImage"/>
    <dc:date>2024-06-03T22:39:04.878463</dc:date>
    <dc:format>image/svg+xml</dc:format>
    <dc:creator>
     <cc:Agent>
      <dc:title>Matplotlib v3.7.2, https://matplotlib.org/</dc:title>
     </cc:Agent>
    </dc:creator>
   </cc:Work>
  </rdf:RDF>
 </metadata>
 <defs>
  <style type="text/css">*{stroke-linejoin: round; stroke-linecap: butt}</style>
 </defs>
 <g id="figure_1">
  <g id="patch_1">
   <path d="M 0 720 
L 720 720 
L 720 0 
L 0 0 
L 0 720 
z
" style="fill: none; opacity: 0"/>
  </g>
  <g id="axes_1">
   <g id="patch_2">
    <path d="M 507.6 384.39 
C 513.113572 384.39 518.402066 382.199434 522.30075 378.30075 
C 526.199434 374.402066 528.39 369.113572 528.39 363.6 
C 528.39 358.086428 526.199434 352.797934 522.30075 348.89925 
C 518.402066 345.000566 513.113572 342.81 507.6 342.81 
C 502.086428 342.81 496.797934 345.000566 492.89925 348.89925 
C 489.000566 352.797934 486.81 358.086428 486.81 363.6 
C 486.81 369.113572 489.000566 374.402066 492.89925 378.30075 
C 496.797934 382.199434 502.086428 384.39 507.6 384.39 
z
" clip-path="url(#p500ea3a639)" style="fill: #add8e6; stroke: #000000; stroke-width: 2; stroke-linejoin: miter"/>
   </g>
   <g id="patch_3">
    <path d="M 230.4 384.39 
C 235.913572 384.39 241.202066 382.199434 245.10075 378.30075 
C 248.999434 374.402066 251.19 369.113572 251.19 363.6 
C 251.19 358.086428 248.999434 352.797934 245.10075 348.89925 
C 241.202066 345.000566 235.913572 342.81 230.4 342.81 
C 224.886428 342.81 219.597934 345.000566 215.69925 348.89925 
C 211.800566 352.797934 209.61 358.086428 209.61 363.6 
C 209.61 369.113572 211.800566 374.402066 215.69925 378.30075 
C 219.597934 382.199434 224.886428 384.39 230.4 384.39 
z
" clip-path="url(#p500ea3a639)" style="fill: #90ee90; stroke: #000000; stroke-width: 2; stroke-linejoin: miter"/>
   </g>
   <g id="patch_4">
    <path d="M 576.9 384.39 
C 582.413572 384.39 587.702066 382.199434 591.60075 378.30075 
C 595.499434 374.402066 597.69 369.113572 597.69 363.6 
C 597.69 358.086428 595.499434 352.797934 591.60075 348.89925 
C 587.702066 345.000566 582.413572 342.81 576.9 342.81 
C 571.386428 342.81 566.097934 345.000566 562.19925 348.89925 
C 558.300566 352.797934 556.11 358.086428 556.11 363.6 
C 556.11 369.113572 558.300566 374.402066 562.19925 378.30075 
C 566.097934 382.199434 571.386428 384.39 576.9 384.39 
z
" clip-path="url(#p500ea3a639)" style="fill: #add8e6; stroke: #000000; stroke-width: 2; stroke-linejoin: miter"/>
   </g>
   <g id="patch_5">
    <path d="M 529.014878 318.481783 
C 534.52845 318.481783 539.816943 316.291218 543.715628 312.392533 
C 547.614312 308.493849 549.804878 303.205356 549.804878 297.691783 
C 549.804878 292.178211 547.614312 286.889718 543.715628 282.991033 
C 539.816943 279.092349 534.52845 276.901783 529.014878 276.901783 
C 523.501305 276.901783 518.212812 279.092349 514.314128 282.991033 
C 510.415443 286.889718 508.224878 292.178211 508.224878 297.691783 
C 508.224878 303.205356 510.415443 308.493849 514.314128 312.392533 
C 518.212812 316.291218 523.501305 318.481783 529.014878 318.481783 
z
" clip-path="url(#p500ea3a639)" style="fill: #90ee90; stroke: #000000; stroke-width: 2; stroke-linejoin: miter"/>
   </g>
   <g id="patch_6">
    <path d="M 451.535122 343.656482 
C 457.048695 343.656482 462.337188 341.465916 466.235872 337.567232 
C 470.134557 333.668548 472.325122 328.380054 472.325122 322.866482 
C 472.325122 317.35291 470.134557 312.064417 466.235872 308.165732 
C 462.337188 304.267048 457.048695 302.076482 451.535122 302.076482 
C 446.02155 302.076482 440.733057 304.267048 436.834372 308.165732 
C 432.935688 312.064417 430.745122 317.35291 430.745122 322.866482 
C 430.745122 328.380054 432.935688 333.668548 436.834372 337.567232 
C 440.733057 341.465916 446.02155 343.656482 451.535122 343.656482 
z
" clip-path="url(#p500ea3a639)" style="fill: #ffff00; stroke: #000000; stroke-width: 2; stroke-linejoin: miter"/>
   </g>
   <g id="patch_7">
    <path d="M 451.535122 425.123518 
C 457.048695 425.123518 462.337188 422.932952 466.235872 419.034268 
C 470.134557 415.135583 472.325122 409.84709 472.325122 404.333518 
C 472.325122 398.819946 470.134557 393.531452 466.235872 389.632768 
C 462.337188 385.734084 457.048695 383.543518 451.535122 383.543518 
C 446.02155 383.543518 440.733057 385.734084 436.834372 389.632768 
C 432.935688 393.531452 430.745122 398.819946 430.745122 404.333518 
C 430.745122 409.84709 432.935688 415.135583 436.834372 419.034268 
C 440.733057 422.932952 446.02155 425.123518 451.535122 425.123518 
z
" clip-path="url(#p500ea3a639)" style="fill: #add8e6; stroke: #000000; stroke-width: 2; stroke-linejoin: miter"/>
   </g>
   <g id="patch_8">
    <path d="M 529.014878 450.298217 
C 534.52845 450.298217 539.816943 448.107651 543.715628 444.208967 
C 547.614312 440.310282 549.804878 435.021789 549.804878 429.508217 
C 549.804878 423.994644 547.614312 418.706151 543.715628 414.807467 
C 539.816943 410.908782 534.52845 408.718217 529.014878 408.718217 
C 523.501305 408.718217 518.212812 410.908782 514.314128 414.807467 
C 510.415443 418.706151 508.224878 423.994644 508.224878 429.508217 
C 508.224878 435.021789 510.415443 440.310282 514.314128 444.208967 
C 518.212812 448.107651 523.501305 450.298217 529.014878 450.298217 
z
" clip-path="url(#p500ea3a639)" style="fill: #90ee90; stroke: #000000; stroke-width: 2; stroke-linejoin: miter"/>
   </g>
   <g id="patch_9">
    <path d="M 299.7 384.39 
C 305.213572 384.39 310.502066 382.199434 314.40075 378.30075 
C 318.299434 374.402066 320.49 369.113572 320.49 363.6 
C 320.49 358.086428 318.299434 352.797934 314.40075 348.89925 
C 310.502066 345.000566 305.213572 342.81 299.7 342.81 
C 294.186428 342.81 288.897934 345.000566 284.99925 348.89925 
C 281.100566 352.797934 278.91 358.086428 278.91 363.6 
C 278.91 369.113572 281.100566 374.402066 284.99925 378.30075 
C 288.897934 382.199434 294.186428 384.39 299.7 384.39 
z
" clip-path="url(#p500ea3a639)" style="fill: #ffff00; stroke: #000000; stroke-width: 2; stroke-linejoin: miter"/>
   </g>
   <g id="patch_10">
    <path d="M 251.814878 318.481783 
C 257.32845 318.481783 262.616943 316.291218 266.515628 312.392533 
C 270.414312 308.493849 272.604878 303.205356 272.604878 297.691783 
C 272.604878 292.178211 270.414312 286.889718 266.515628 282.991033 
C 262.616943 279.092349 257.32845 276.901783 251.814878 276.901783 
C 246.301305 276.901783 241.012812 279.092349 237.114128 282.991033 
C 233.215443 286.889718 231.024878 292.178211 231.024878 297.691783 
C 231.024878 303.205356 233.215443 308.493849 237.114128 312.392533 
C 241.012812 316.291218 246.301305 318.481783 251.814878 318.481783 
z
" clip-path="url(#p500ea3a639)" style="fill: #add8e6; stroke: #000000; stroke-width: 2; stroke-linejoin: miter"/>
   </g>
   <g id="patch_11">
    <path d="M 174.335122 343.656482 
C 179.848695 343.656482 185.137188 341.465916 189.035872 337.567232 
C 192.934557 333.668548 195.125122 328.380054 195.125122 322.866482 
C 195.125122 317.35291 192.934557 312.064417 189.035872 308.165732 
C 185.137188 304.267048 179.848695 302.076482 174.335122 302.076482 
C 168.82155 302.076482 163.533057 304.267048 159.634372 308.165732 
C 155.735688 312.064417 153.545122 317.35291 153.545122 322.866482 
C 153.545122 328.380054 155.735688 333.668548 159.634372 337.567232 
C 163.533057 341.465916 168.82155 343.656482 174.335122 343.656482 
z
" clip-path="url(#p500ea3a639)" style="fill: #90ee90; stroke: #000000; stroke-width: 2; stroke-linejoin: miter"/>
   </g>
   <g id="patch_12">
    <path d="M 174.335122 425.123518 
C 179.848695 425.123518 185.137188 422.932952 189.035872 419.034268 
C 192.934557 415.135583 195.125122 409.84709 195.125122 404.333518 
C 195.125122 398.819946 192.934557 393.531452 189.035872 389.632768 
C 185.137188 385.734084 179.848695 383.543518 174.335122 383.543518 
C 168.82155 383.543518 163.533057 385.734084 159.634372 389.632768 
C 155.735688 393.531452 153.545122 398.819946 153.545122 404.333518 
C 153.545122 409.84709 155.735688 415.135583 159.634372 419.034268 
C 163.533057 422.932952 168.82155 425.123518 174.335122 425.123518 
z
" clip-path="url(#p500ea3a639)" style="fill: #ffff00; stroke: #000000; stroke-width: 2; stroke-linejoin: miter"/>
   </g>
   <g id="patch_13">
    <path d="M 251.814878 450.298217 
C 257.32845 450.298217 262.616943 448.107651 266.515628 444.208967 
C 270.414312 440.310282 272.604878 435.021789 272.604878 429.508217 
C 272.604878 423.994644 270.414312 418.706151 266.515628 414.807467 
C 262.616943 410.908782 257.32845 408.718217 251.814878 408.718217 
C 246.301305 408.718217 241.012812 410.908782 237.114128 414.807467 
C 233.215443 418.706151 231.024878 423.994644 231.024878 429.508217 
C 231.024878 435.021789 233.215443 440.310282 237.114128 444.208967 
C 241.012812 448.107651 246.301305 450.298217 251.814878 450.298217 
z
" clip-path="url(#p500ea3a639)" style="fill: #add8e6; stroke: #000000; stroke-width: 2; stroke-linejoin: miter"/>
   </g>
   <g id="line2d_1">
    <path d="M 507.6 363.6 
L 230.4 363.6 
" clip-path="url(#p500ea3a639)" style="fill: none; stroke: #000000; stroke-linecap: square"/>
   </g>
   <g id="line2d_2">
    <path d="M 507.6 363.6 
L 576.9 363.6 
" clip-path="url(#p500ea3a639)" style="fill: none; stroke: #000000; stroke-linecap: square"/>
   </g>
   <g id="line2d_3">
    <path d="M 507.6 363.6 
L 529.014878 297.691783 
" clip-path="url(#p500ea3a639)" style="fill: none; stroke: #000000; stroke-linecap: square"/>
   </g>
   <g id="line2d_4">
    <path d="M 507.6 363.6 
L 451.535122 322.866482 
" clip-path="url(#p500ea3a639)" style="fill: none; stroke: #000000; stroke-linecap: square"/>
   </g>
   <g id="line2d_5">
    <path d="M 507.6 363.6 
L 451.535122 404.333518 
" clip-path="url(#p500ea3a639)" style="fill: none; stroke: #000000; stroke-linecap: square"/>
   </g>
   <g id="line2d_6">
    <path d="M 507.6 363.6 
L 529.014878 429.508217 
" clip-path="url(#p500ea3a639)" style="fill: none; stroke: #000000; stroke-linecap: square"/>
   </g>
   <g id="line2d_7">
    <path d="M 230.4 363.6 
L 299.7 363.6 
" clip-path="url(#p500ea3a639)" style="fill: none; stroke: #000000; stroke-linecap: square"/>
   </g>
   <g id="line2d_8">
    <path d="M 230.4 363.6 
L 251.814878 297.691783 
" clip-path="url(#p500ea3a639)" style="fill: none; stroke: #000000; stroke-linecap: square"/>
   </g>
   <g id="line2d_9">
    <path d="M 230.4 363.6 
L 174.335122 322.866482 
" clip-path="url(#p500ea3a639)" style="fill: none; stroke: #000000; stroke-linecap: square"/>
   </g>
   <g id="line2d_10">
    <path d="M 230.4 363.6 
L 174.335122 404.333518 
" clip-path="url(#p500ea3a639)" style="fill: none; stroke: #000000; stroke-linecap: square"/>
   </g>
   <g id="line2d_11">
    <path d="M 230.4 363.6 
L 251.814878 429.508217 
" clip-path="url(#p500ea3a639)" style="fill: none; stroke: #000000; stroke-linecap: square"/>
   </g>
   <g id="text_1">
    <!-- Double Bubble Map - Pirahansiah.com -->
    <g style="fill: #808080" transform="translate(570.079375 362.768125) scale(0.04 -0.04)">
     <defs>
      <path id="DejaVuSans-44" d="M 1259 4147 
L 1259 519 
L 2022 519 
Q 2988 519 3436 956 
Q 3884 1394 3884 2338 
Q 3884 3275 3436 3711 
Q 2988 4147 2022 4147 
L 1259 4147 
z
M 628 4666 
L 1925 4666 
Q 3281 4666 3915 4102 
Q 4550 3538 4550 2338 
Q 4550 1131 3912 565 
Q 3275 0 1925 0 
L 628 0 
L 628 4666 
z
" transform="scale(0.015625)"/>
      <path id="DejaVuSans-6f" d="M 1959 3097 
Q 1497 3097 1228 2736 
Q 959 2375 959 1747 
Q 959 1119 1226 758 
Q 1494 397 1959 397 
Q 2419 397 2687 759 
Q 2956 1122 2956 1747 
Q 2956 2369 2687 2733 
Q 2419 3097 1959 3097 
z
M 1959 3584 
Q 2709 3584 3137 3096 
Q 3566 2609 3566 1747 
Q 3566 888 3137 398 
Q 2709 -91 1959 -91 
Q 1206 -91 779 398 
Q 353 888 353 1747 
Q 353 2609 779 3096 
Q 1206 3584 1959 3584 
z
" transform="scale(0.015625)"/>
      <path id="DejaVuSans-75" d="M 544 1381 
L 544 3500 
L 1119 3500 
L 1119 1403 
Q 1119 906 1312 657 
Q 1506 409 1894 409 
Q 2359 409 2629 706 
Q 2900 1003 2900 1516 
L 2900 3500 
L 3475 3500 
L 3475 0 
L 2900 0 
L 2900 538 
Q 2691 219 2414 64 
Q 2138 -91 1772 -91 
Q 1169 -91 856 284 
Q 544 659 544 1381 
z
M 1991 3584 
L 1991 3584 
z
" transform="scale(0.015625)"/>
      <path id="DejaVuSans-62" d="M 3116 1747 
Q 3116 2381 2855 2742 
Q 2594 3103 2138 3103 
Q 1681 3103 1420 2742 
Q 1159 2381 1159 1747 
Q 1159 1113 1420 752 
Q 1681 391 2138 391 
Q 2594 391 2855 752 
Q 3116 1113 3116 1747 
z
M 1159 2969 
Q 1341 3281 1617 3432 
Q 1894 3584 2278 3584 
Q 2916 3584 3314 3078 
Q 3713 2572 3713 1747 
Q 3713 922 3314 415 
Q 2916 -91 2278 -91 
Q 1894 -91 1617 61 
Q 1341 213 1159 525 
L 1159 0 
L 581 0 
L 581 4863 
L 1159 4863 
L 1159 2969 
z
" transform="scale(0.015625)"/>
      <path id="DejaVuSans-6c" d="M 603 4863 
L 1178 4863 
L 1178 0 
L 603 0 
L 603 4863 
z
" transform="scale(0.015625)"/>
      <path id="DejaVuSans-65" d="M 3597 1894 
L 3597 1613 
L 953 1613 
Q 991 1019 1311 708 
Q 1631 397 2203 397 
Q 2534 397 2845 478 
Q 3156 559 3463 722 
L 3463 178 
Q 3153 47 2828 -22 
Q 2503 -91 2169 -91 
Q 1331 -91 842 396 
Q 353 884 353 1716 
Q 353 2575 817 3079 
Q 1281 3584 2069 3584 
Q 2775 3584 3186 3129 
Q 3597 2675 3597 1894 
z
M 3022 2063 
Q 3016 2534 2758 2815 
Q 2500 3097 2075 3097 
Q 1594 3097 1305 2825 
Q 1016 2553 972 2059 
L 3022 2063 
z
" transform="scale(0.015625)"/>
      <path id="DejaVuSans-20" transform="scale(0.015625)"/>
      <path id="DejaVuSans-42" d="M 1259 2228 
L 1259 519 
L 2272 519 
Q 2781 519 3026 730 
Q 3272 941 3272 1375 
Q 3272 1813 3026 2020 
Q 2781 2228 2272 2228 
L 1259 2228 
z
M 1259 4147 
L 1259 2741 
L 2194 2741 
Q 2656 2741 2882 2914 
Q 3109 3088 3109 3444 
Q 3109 3797 2882 3972 
Q 2656 4147 2194 4147 
L 1259 4147 
z
M 628 4666 
L 2241 4666 
Q 2963 4666 3353 4366 
Q 3744 4066 3744 3513 
Q 3744 3084 3544 2831 
Q 3344 2578 2956 2516 
Q 3422 2416 3680 2098 
Q 3938 1781 3938 1306 
Q 3938 681 3513 340 
Q 3088 0 2303 0 
L 628 0 
L 628 4666 
z
" transform="scale(0.015625)"/>
      <path id="DejaVuSans-4d" d="M 628 4666 
L 1569 4666 
L 2759 1491 
L 3956 4666 
L 4897 4666 
L 4897 0 
L 4281 0 
L 4281 4097 
L 3078 897 
L 2444 897 
L 1241 4097 
L 1241 0 
L 628 0 
L 628 4666 
z
" transform="scale(0.015625)"/>
      <path id="DejaVuSans-61" d="M 2194 1759 
Q 1497 1759 1228 1600 
Q 959 1441 959 1056 
Q 959 750 1161 570 
Q 1363 391 1709 391 
Q 2188 391 2477 730 
Q 2766 1069 2766 1631 
L 2766 1759 
L 2194 1759 
z
M 3341 1997 
L 3341 0 
L 2766 0 
L 2766 531 
Q 2569 213 2275 61 
Q 1981 -91 1556 -91 
Q 1019 -91 701 211 
Q 384 513 384 1019 
Q 384 1609 779 1909 
Q 1175 2209 1959 2209 
L 2766 2209 
L 2766 2266 
Q 2766 2663 2505 2880 
Q 2244 3097 1772 3097 
Q 1472 3097 1187 3025 
Q 903 2953 641 2809 
L 641 3341 
Q 956 3463 1253 3523 
Q 1550 3584 1831 3584 
Q 2591 3584 2966 3190 
Q 3341 2797 3341 1997 
z
" transform="scale(0.015625)"/>
      <path id="DejaVuSans-70" d="M 1159 525 
L 1159 -1331 
L 581 -1331 
L 581 3500 
L 1159 3500 
L 1159 2969 
Q 1341 3281 1617 3432 
Q 1894 3584 2278 3584 
Q 2916 3584 3314 3078 
Q 3713 2572 3713 1747 
Q 3713 922 3314 415 
Q 2916 -91 2278 -91 
Q 1894 -91 1617 61 
Q 1341 213 1159 525 
z
M 3116 1747 
Q 3116 2381 2855 2742 
Q 2594 3103 2138 3103 
Q 1681 3103 1420 2742 
Q 1159 2381 1159 1747 
Q 1159 1113 1420 752 
Q 1681 391 2138 391 
Q 2594 391 2855 752 
Q 3116 1113 3116 1747 
z
" transform="scale(0.015625)"/>
      <path id="DejaVuSans-2d" d="M 313 2009 
L 1997 2009 
L 1997 1497 
L 313 1497 
L 313 2009 
z
" transform="scale(0.015625)"/>
      <path id="DejaVuSans-50" d="M 1259 4147 
L 1259 2394 
L 2053 2394 
Q 2494 2394 2734 2622 
Q 2975 2850 2975 3272 
Q 2975 3691 2734 3919 
Q 2494 4147 2053 4147 
L 1259 4147 
z
M 628 4666 
L 2053 4666 
Q 2838 4666 3239 4311 
Q 3641 3956 3641 3272 
Q 3641 2581 3239 2228 
Q 2838 1875 2053 1875 
L 1259 1875 
L 1259 0 
L 628 0 
L 628 4666 
z
" transform="scale(0.015625)"/>
      <path id="DejaVuSans-69" d="M 603 3500 
L 1178 3500 
L 1178 0 
L 603 0 
L 603 3500 
z
M 603 4863 
L 1178 4863 
L 1178 4134 
L 603 4134 
L 603 4863 
z
" transform="scale(0.015625)"/>
      <path id="DejaVuSans-72" d="M 2631 2963 
Q 2534 3019 2420 3045 
Q 2306 3072 2169 3072 
Q 1681 3072 1420 2755 
Q 1159 2438 1159 1844 
L 1159 0 
L 581 0 
L 581 3500 
L 1159 3500 
L 1159 2956 
Q 1341 3275 1631 3429 
Q 1922 3584 2338 3584 
Q 2397 3584 2469 3576 
Q 2541 3569 2628 3553 
L 2631 2963 
z
" transform="scale(0.015625)"/>
      <path id="DejaVuSans-68" d="M 3513 2113 
L 3513 0 
L 2938 0 
L 2938 2094 
Q 2938 2591 2744 2837 
Q 2550 3084 2163 3084 
Q 1697 3084 1428 2787 
Q 1159 2491 1159 1978 
L 1159 0 
L 581 0 
L 581 4863 
L 1159 4863 
L 1159 2956 
Q 1366 3272 1645 3428 
Q 1925 3584 2291 3584 
Q 2894 3584 3203 3211 
Q 3513 2838 3513 2113 
z
" transform="scale(0.015625)"/>
      <path id="DejaVuSans-6e" d="M 3513 2113 
L 3513 0 
L 2938 0 
L 2938 2094 
Q 2938 2591 2744 2837 
Q 2550 3084 2163 3084 
Q 1697 3084 1428 2787 
Q 1159 2491 1159 1978 
L 1159 0 
L 581 0 
L 581 3500 
L 1159 3500 
L 1159 2956 
Q 1366 3272 1645 3428 
Q 1925 3584 2291 3584 
Q 2894 3584 3203 3211 
Q 3513 2838 3513 2113 
z
" transform="scale(0.015625)"/>
      <path id="DejaVuSans-73" d="M 2834 3397 
L 2834 2853 
Q 2591 2978 2328 3040 
Q 2066 3103 1784 3103 
Q 1356 3103 1142 2972 
Q 928 2841 928 2578 
Q 928 2378 1081 2264 
Q 1234 2150 1697 2047 
L 1894 2003 
Q 2506 1872 2764 1633 
Q 3022 1394 3022 966 
Q 3022 478 2636 193 
Q 2250 -91 1575 -91 
Q 1294 -91 989 -36 
Q 684 19 347 128 
L 347 722 
Q 666 556 975 473 
Q 1284 391 1588 391 
Q 1994 391 2212 530 
Q 2431 669 2431 922 
Q 2431 1156 2273 1281 
Q 2116 1406 1581 1522 
L 1381 1569 
Q 847 1681 609 1914 
Q 372 2147 372 2553 
Q 372 3047 722 3315 
Q 1072 3584 1716 3584 
Q 2034 3584 2315 3537 
Q 2597 3491 2834 3397 
z
" transform="scale(0.015625)"/>
      <path id="DejaVuSans-2e" d="M 684 794 
L 1344 794 
L 1344 0 
L 684 0 
L 684 794 
z
" transform="scale(0.015625)"/>
      <path id="DejaVuSans-63" d="M 3122 3366 
L 3122 2828 
Q 2878 2963 2633 3030 
Q 2388 3097 2138 3097 
Q 1578 3097 1268 2742 
Q 959 2388 959 1747 
Q 959 1106 1268 751 
Q 1578 397 2138 397 
Q 2388 397 2633 464 
Q 2878 531 3122 666 
L 3122 134 
Q 2881 22 2623 -34 
Q 2366 -91 2075 -91 
Q 1284 -91 818 406 
Q 353 903 353 1747 
Q 353 2603 823 3093 
Q 1294 3584 2113 3584 
Q 2378 3584 2631 3529 
Q 2884 3475 3122 3366 
z
" transform="scale(0.015625)"/>
      <path id="DejaVuSans-6d" d="M 3328 2828 
Q 3544 3216 3844 3400 
Q 4144 3584 4550 3584 
Q 5097 3584 5394 3201 
Q 5691 2819 5691 2113 
L 5691 0 
L 5113 0 
L 5113 2094 
Q 5113 2597 4934 2840 
Q 4756 3084 4391 3084 
Q 3944 3084 3684 2787 
Q 3425 2491 3425 1978 
L 3425 0 
L 2847 0 
L 2847 2094 
Q 2847 2600 2669 2842 
Q 2491 3084 2119 3084 
Q 1678 3084 1418 2786 
Q 1159 2488 1159 1978 
L 1159 0 
L 581 0 
L 581 3500 
L 1159 3500 
L 1159 2956 
Q 1356 3278 1631 3431 
Q 1906 3584 2284 3584 
Q 2666 3584 2933 3390 
Q 3200 3197 3328 2828 
z
" transform="scale(0.015625)"/>
     </defs>
     <use xlink:href="#DejaVuSans-44"/>
     <use xlink:href="#DejaVuSans-6f" x="77.001953"/>
     <use xlink:href="#DejaVuSans-75" x="138.183594"/>
     <use xlink:href="#DejaVuSans-62" x="201.5625"/>
     <use xlink:href="#DejaVuSans-6c" x="265.039062"/>
     <use xlink:href="#DejaVuSans-65" x="292.822266"/>
     <use xlink:href="#DejaVuSans-20" x="354.345703"/>
     <use xlink:href="#DejaVuSans-42" x="386.132812"/>
     <use xlink:href="#DejaVuSans-75" x="454.736328"/>
     <use xlink:href="#DejaVuSans-62" x="518.115234"/>
     <use xlink:href="#DejaVuSans-62" x="581.591797"/>
     <use xlink:href="#DejaVuSans-6c" x="645.068359"/>
     <use xlink:href="#DejaVuSans-65" x="672.851562"/>
     <use xlink:href="#DejaVuSans-20" x="734.375"/>
     <use xlink:href="#DejaVuSans-4d" x="766.162109"/>
     <use xlink:href="#DejaVuSans-61" x="852.441406"/>
     <use xlink:href="#DejaVuSans-70" x="913.720703"/>
     <use xlink:href="#DejaVuSans-20" x="977.197266"/>
     <use xlink:href="#DejaVuSans-2d" x="1008.984375"/>
     <use xlink:href="#DejaVuSans-20" x="1045.068359"/>
     <use xlink:href="#DejaVuSans-50" x="1076.855469"/>
     <use xlink:href="#DejaVuSans-69" x="1134.908203"/>
     <use xlink:href="#DejaVuSans-72" x="1162.691406"/>
     <use xlink:href="#DejaVuSans-61" x="1203.804688"/>
     <use xlink:href="#DejaVuSans-68" x="1265.083984"/>
     <use xlink:href="#DejaVuSans-61" x="1328.462891"/>
     <use xlink:href="#DejaVuSans-6e" x="1389.742188"/>
     <use xlink:href="#DejaVuSans-73" x="1453.121094"/>
     <use xlink:href="#DejaVuSans-69" x="1505.220703"/>
     <use xlink:href="#DejaVuSans-61" x="1533.003906"/>
     <use xlink:href="#DejaVuSans-68" x="1594.283203"/>
     <use xlink:href="#DejaVuSans-2e" x="1657.662109"/>
     <use xlink:href="#DejaVuSans-63" x="1689.449219"/>
     <use xlink:href="#DejaVuSans-6f" x="1744.429688"/>
     <use xlink:href="#DejaVuSans-6d" x="1805.611328"/>
    </g>
   </g>
  </g>
 </g>
 <defs>
  <clipPath id="p500ea3a639">
   <rect x="91.8" y="86.4" width="554.4" height="554.4"/>
  </clipPath>
 </defs>
</svg>
