<?xml version="1.0" encoding="utf-8" standalone="no"?>
<!DOCTYPE svg PUBLIC "-//W3C//DTD SVG 1.1//EN"
  "http://www.w3.org/Graphics/SVG/1.1/DTD/svg11.dtd">
<svg xmlns:xlink="http://www.w3.org/1999/xlink" width="720pt" height="720pt" viewBox="0 0 720 720" xmlns="http://www.w3.org/2000/svg" version="1.1">
 <metadata>
  <rdf:RDF xmlns:dc="http://purl.org/dc/elements/1.1/" xmlns:cc="http://creativecommons.org/ns#" xmlns:rdf="http://www.w3.org/1999/02/22-rdf-syntax-ns#">
   <cc:Work>
    <dc:type rdf:resource="http://purl.org/dc/dcmitype/StillImage"/>
    <dc:date>2024-06-03T16:38:39.980060</dc:date>
    <dc:format>image/svg+xml</dc:format>
    <dc:creator>
     <cc:Agent>
      <dc:title>Matplotlib v3.7.2, https://matplotlib.org/</dc:title>
     </cc:Agent>
    </dc:creator>
   </cc:Work>
  </rdf:RDF>
 </metadata>
 <defs>
  <style type="text/css">*{stroke-linejoin: round; stroke-linecap: butt}</style>
 </defs>
 <g id="figure_1">
  <g id="patch_1">
   <path d="M 0 720 
L 720 720 
L 720 0 
L 0 0 
L 0 720 
z
" style="fill: none; opacity: 0"/>
  </g>
  <g id="axes_1">
   <g id="patch_2">
    <path d="M 507.6 384.39 
C 513.113572 384.39 518.402066 382.199434 522.30075 378.30075 
C 526.199434 374.402066 528.39 369.113572 528.39 363.6 
C 528.39 358.086428 526.199434 352.797934 522.30075 348.89925 
C 518.402066 345.000566 513.113572 342.81 507.6 342.81 
C 502.086428 342.81 496.797934 345.000566 492.89925 348.89925 
C 489.000566 352.797934 486.81 358.086428 486.81 363.6 
C 486.81 369.113572 489.000566 374.402066 492.89925 378.30075 
C 496.797934 382.199434 502.086428 384.39 507.6 384.39 
z
" clip-path="url(#pb072b68453)" style="fill: #add8e6; stroke: #000000; stroke-width: 2; stroke-linejoin: miter"/>
   </g>
   <g id="patch_3">
    <path d="M 230.4 384.39 
C 235.913572 384.39 241.202066 382.199434 245.10075 378.30075 
C 248.999434 374.402066 251.19 369.113572 251.19 363.6 
C 251.19 358.086428 248.999434 352.797934 245.10075 348.89925 
C 241.202066 345.000566 235.913572 342.81 230.4 342.81 
C 224.886428 342.81 219.597934 345.000566 215.69925 348.89925 
C 211.800566 352.797934 209.61 358.086428 209.61 363.6 
C 209.61 369.113572 211.800566 374.402066 215.69925 378.30075 
C 219.597934 382.199434 224.886428 384.39 230.4 384.39 
z
" clip-path="url(#pb072b68453)" style="fill: #add8e6; stroke: #000000; stroke-width: 2; stroke-linejoin: miter"/>
   </g>
   <g id="patch_4">
    <path d="M 576.9 384.39 
C 582.413572 384.39 587.702066 382.199434 591.60075 378.30075 
C 595.499434 374.402066 597.69 369.113572 597.69 363.6 
C 597.69 358.086428 595.499434 352.797934 591.60075 348.89925 
C 587.702066 345.000566 582.413572 342.81 576.9 342.81 
C 571.386428 342.81 566.097934 345.000566 562.19925 348.89925 
C 558.300566 352.797934 556.11 358.086428 556.11 363.6 
C 556.11 369.113572 558.300566 374.402066 562.19925 378.30075 
C 566.097934 382.199434 571.386428 384.39 576.9 384.39 
z
" clip-path="url(#pb072b68453)" style="fill: #90ee90; stroke: #000000; stroke-width: 2; stroke-linejoin: miter"/>
   </g>
   <g id="patch_5">
    <path d="M 529.014878 318.481783 
C 534.52845 318.481783 539.816943 316.291218 543.715628 312.392533 
C 547.614312 308.493849 549.804878 303.205356 549.804878 297.691783 
C 549.804878 292.178211 547.614312 286.889718 543.715628 282.991033 
C 539.816943 279.092349 534.52845 276.901783 529.014878 276.901783 
C 523.501305 276.901783 518.212812 279.092349 514.314128 282.991033 
C 510.415443 286.889718 508.224878 292.178211 508.224878 297.691783 
C 508.224878 303.205356 510.415443 308.493849 514.314128 312.392533 
C 518.212812 316.291218 523.501305 318.481783 529.014878 318.481783 
z
" clip-path="url(#pb072b68453)" style="fill: #90ee90; stroke: #000000; stroke-width: 2; stroke-linejoin: miter"/>
   </g>
   <g id="patch_6">
    <path d="M 451.535122 343.656482 
C 457.048695 343.656482 462.337188 341.465916 466.235872 337.567232 
C 470.134557 333.668548 472.325122 328.380054 472.325122 322.866482 
C 472.325122 317.35291 470.134557 312.064417 466.235872 308.165732 
C 462.337188 304.267048 457.048695 302.076482 451.535122 302.076482 
C 446.02155 302.076482 440.733057 304.267048 436.834372 308.165732 
C 432.935688 312.064417 430.745122 317.35291 430.745122 322.866482 
C 430.745122 328.380054 432.935688 333.668548 436.834372 337.567232 
C 440.733057 341.465916 446.02155 343.656482 451.535122 343.656482 
z
" clip-path="url(#pb072b68453)" style="fill: #90ee90; stroke: #000000; stroke-width: 2; stroke-linejoin: miter"/>
   </g>
   <g id="patch_7">
    <path d="M 451.535122 425.123518 
C 457.048695 425.123518 462.337188 422.932952 466.235872 419.034268 
C 470.134557 415.135583 472.325122 409.84709 472.325122 404.333518 
C 472.325122 398.819946 470.134557 393.531452 466.235872 389.632768 
C 462.337188 385.734084 457.048695 383.543518 451.535122 383.543518 
C 446.02155 383.543518 440.733057 385.734084 436.834372 389.632768 
C 432.935688 393.531452 430.745122 398.819946 430.745122 404.333518 
C 430.745122 409.84709 432.935688 415.135583 436.834372 419.034268 
C 440.733057 422.932952 446.02155 425.123518 451.535122 425.123518 
z
" clip-path="url(#pb072b68453)" style="fill: #90ee90; stroke: #000000; stroke-width: 2; stroke-linejoin: miter"/>
   </g>
   <g id="patch_8">
    <path d="M 529.014878 450.298217 
C 534.52845 450.298217 539.816943 448.107651 543.715628 444.208967 
C 547.614312 440.310282 549.804878 435.021789 549.804878 429.508217 
C 549.804878 423.994644 547.614312 418.706151 543.715628 414.807467 
C 539.816943 410.908782 534.52845 408.718217 529.014878 408.718217 
C 523.501305 408.718217 518.212812 410.908782 514.314128 414.807467 
C 510.415443 418.706151 508.224878 423.994644 508.224878 429.508217 
C 508.224878 435.021789 510.415443 440.310282 514.314128 444.208967 
C 518.212812 448.107651 523.501305 450.298217 529.014878 450.298217 
z
" clip-path="url(#pb072b68453)" style="fill: #90ee90; stroke: #000000; stroke-width: 2; stroke-linejoin: miter"/>
   </g>
   <g id="patch_9">
    <path d="M 299.7 384.39 
C 305.213572 384.39 310.502066 382.199434 314.40075 378.30075 
C 318.299434 374.402066 320.49 369.113572 320.49 363.6 
C 320.49 358.086428 318.299434 352.797934 314.40075 348.89925 
C 310.502066 345.000566 305.213572 342.81 299.7 342.81 
C 294.186428 342.81 288.897934 345.000566 284.99925 348.89925 
C 281.100566 352.797934 278.91 358.086428 278.91 363.6 
C 278.91 369.113572 281.100566 374.402066 284.99925 378.30075 
C 288.897934 382.199434 294.186428 384.39 299.7 384.39 
z
" clip-path="url(#pb072b68453)" style="fill: #90ee90; stroke: #000000; stroke-width: 2; stroke-linejoin: miter"/>
   </g>
   <g id="patch_10">
    <path d="M 251.814878 318.481783 
C 257.32845 318.481783 262.616943 316.291218 266.515628 312.392533 
C 270.414312 308.493849 272.604878 303.205356 272.604878 297.691783 
C 272.604878 292.178211 270.414312 286.889718 266.515628 282.991033 
C 262.616943 279.092349 257.32845 276.901783 251.814878 276.901783 
C 246.301305 276.901783 241.012812 279.092349 237.114128 282.991033 
C 233.215443 286.889718 231.024878 292.178211 231.024878 297.691783 
C 231.024878 303.205356 233.215443 308.493849 237.114128 312.392533 
C 241.012812 316.291218 246.301305 318.481783 251.814878 318.481783 
z
" clip-path="url(#pb072b68453)" style="fill: #90ee90; stroke: #000000; stroke-width: 2; stroke-linejoin: miter"/>
   </g>
   <g id="patch_11">
    <path d="M 174.335122 343.656482 
C 179.848695 343.656482 185.137188 341.465916 189.035872 337.567232 
C 192.934557 333.668548 195.125122 328.380054 195.125122 322.866482 
C 195.125122 317.35291 192.934557 312.064417 189.035872 308.165732 
C 185.137188 304.267048 179.848695 302.076482 174.335122 302.076482 
C 168.82155 302.076482 163.533057 304.267048 159.634372 308.165732 
C 155.735688 312.064417 153.545122 317.35291 153.545122 322.866482 
C 153.545122 328.380054 155.735688 333.668548 159.634372 337.567232 
C 163.533057 341.465916 168.82155 343.656482 174.335122 343.656482 
z
" clip-path="url(#pb072b68453)" style="fill: #90ee90; stroke: #000000; stroke-width: 2; stroke-linejoin: miter"/>
   </g>
   <g id="patch_12">
    <path d="M 174.335122 425.123518 
C 179.848695 425.123518 185.137188 422.932952 189.035872 419.034268 
C 192.934557 415.135583 195.125122 409.84709 195.125122 404.333518 
C 195.125122 398.819946 192.934557 393.531452 189.035872 389.632768 
C 185.137188 385.734084 179.848695 383.543518 174.335122 383.543518 
C 168.82155 383.543518 163.533057 385.734084 159.634372 389.632768 
C 155.735688 393.531452 153.545122 398.819946 153.545122 404.333518 
C 153.545122 409.84709 155.735688 415.135583 159.634372 419.034268 
C 163.533057 422.932952 168.82155 425.123518 174.335122 425.123518 
z
" clip-path="url(#pb072b68453)" style="fill: #90ee90; stroke: #000000; stroke-width: 2; stroke-linejoin: miter"/>
   </g>
   <g id="patch_13">
    <path d="M 251.814878 450.298217 
C 257.32845 450.298217 262.616943 448.107651 266.515628 444.208967 
C 270.414312 440.310282 272.604878 435.021789 272.604878 429.508217 
C 272.604878 423.994644 270.414312 418.706151 266.515628 414.807467 
C 262.616943 410.908782 257.32845 408.718217 251.814878 408.718217 
C 246.301305 408.718217 241.012812 410.908782 237.114128 414.807467 
C 233.215443 418.706151 231.024878 423.994644 231.024878 429.508217 
C 231.024878 435.021789 233.215443 440.310282 237.114128 444.208967 
C 241.012812 448.107651 246.301305 450.298217 251.814878 450.298217 
z
" clip-path="url(#pb072b68453)" style="fill: #90ee90; stroke: #000000; stroke-width: 2; stroke-linejoin: miter"/>
   </g>
   <g id="line2d_1">
    <path d="M 507.6 363.6 
L 230.4 363.6 
" clip-path="url(#pb072b68453)" style="fill: none; stroke: #000000; stroke-linecap: square"/>
   </g>
   <g id="line2d_2">
    <path d="M 507.6 363.6 
L 576.9 363.6 
" clip-path="url(#pb072b68453)" style="fill: none; stroke: #000000; stroke-linecap: square"/>
   </g>
   <g id="line2d_3">
    <path d="M 507.6 363.6 
L 529.014878 297.691783 
" clip-path="url(#pb072b68453)" style="fill: none; stroke: #000000; stroke-linecap: square"/>
   </g>
   <g id="line2d_4">
    <path d="M 507.6 363.6 
L 451.535122 322.866482 
" clip-path="url(#pb072b68453)" style="fill: none; stroke: #000000; stroke-linecap: square"/>
   </g>
   <g id="line2d_5">
    <path d="M 507.6 363.6 
L 451.535122 404.333518 
" clip-path="url(#pb072b68453)" style="fill: none; stroke: #000000; stroke-linecap: square"/>
   </g>
   <g id="line2d_6">
    <path d="M 507.6 363.6 
L 529.014878 429.508217 
" clip-path="url(#pb072b68453)" style="fill: none; stroke: #000000; stroke-linecap: square"/>
   </g>
   <g id="line2d_7">
    <path d="M 230.4 363.6 
L 299.7 363.6 
" clip-path="url(#pb072b68453)" style="fill: none; stroke: #000000; stroke-linecap: square"/>
   </g>
   <g id="line2d_8">
    <path d="M 230.4 363.6 
L 251.814878 297.691783 
" clip-path="url(#pb072b68453)" style="fill: none; stroke: #000000; stroke-linecap: square"/>
   </g>
   <g id="line2d_9">
    <path d="M 230.4 363.6 
L 174.335122 322.866482 
" clip-path="url(#pb072b68453)" style="fill: none; stroke: #000000; stroke-linecap: square"/>
   </g>
   <g id="line2d_10">
    <path d="M 230.4 363.6 
L 174.335122 404.333518 
" clip-path="url(#pb072b68453)" style="fill: none; stroke: #000000; stroke-linecap: square"/>
   </g>
   <g id="line2d_11">
    <path d="M 230.4 363.6 
L 251.814878 429.508217 
" clip-path="url(#pb072b68453)" style="fill: none; stroke: #000000; stroke-linecap: square"/>
   </g>
  </g>
 </g>
 <defs>
  <clipPath id="pb072b68453">
   <rect x="91.8" y="86.4" width="554.4" height="554.4"/>
  </clipPath>
 </defs>
</svg>
