<?xml version="1.0" encoding="utf-8" standalone="no"?>
<!DOCTYPE svg PUBLIC "-//W3C//DTD SVG 1.1//EN"
  "http://www.w3.org/Graphics/SVG/1.1/DTD/svg11.dtd">
<svg xmlns:xlink="http://www.w3.org/1999/xlink" width="419.04pt" height="594.72pt" viewBox="0 0 419.04 594.72" xmlns="http://www.w3.org/2000/svg" version="1.1">
 <metadata>
  <rdf:RDF xmlns:dc="http://purl.org/dc/elements/1.1/" xmlns:cc="http://creativecommons.org/ns#" xmlns:rdf="http://www.w3.org/1999/02/22-rdf-syntax-ns#">
   <cc:Work>
    <dc:type rdf:resource="http://purl.org/dc/dcmitype/StillImage"/>
    <dc:date>2024-06-03T22:39:05.776685</dc:date>
    <dc:format>image/svg+xml</dc:format>
    <dc:creator>
     <cc:Agent>
      <dc:title>Matplotlib v3.7.2, https://matplotlib.org/</dc:title>
     </cc:Agent>
    </dc:creator>
   </cc:Work>
  </rdf:RDF>
 </metadata>
 <defs>
  <style type="text/css">*{stroke-linejoin: round; stroke-linecap: butt}</style>
 </defs>
 <g id="figure_1">
  <g id="patch_1">
   <path d="M 0 594.72 
L 419.04 594.72 
L 419.04 0 
L 0 0 
L 0 594.72 
z
" style="fill: none; opacity: 0"/>
  </g>
  <g id="axes_1">
   <g id="line2d_1">
    <path d="M 52.38 514.03632 
L 377.136 514.03632 
" clip-path="url(#p75bd8752c2)" style="fill: none; stroke: #ff0000; stroke-linecap: square"/>
   </g>
   <g id="line2d_2">
    <path d="M 52.38 498.77184 
L 377.136 498.77184 
" clip-path="url(#p75bd8752c2)" style="fill: none; stroke: #008000; stroke-linecap: square"/>
   </g>
   <g id="line2d_3">
    <path d="M 52.38 483.50736 
L 377.136 483.50736 
" clip-path="url(#p75bd8752c2)" style="fill: none; stroke: #0000ff; stroke-linecap: square"/>
   </g>
   <g id="line2d_4">
    <path d="M 52.38 468.24288 
L 377.136 468.24288 
" clip-path="url(#p75bd8752c2)" style="fill: none; stroke: #800080; stroke-linecap: square"/>
   </g>
   <g id="line2d_5">
    <path d="M 52.38 452.9784 
L 377.136 452.9784 
" clip-path="url(#p75bd8752c2)" style="fill: none; stroke: #ffa500; stroke-linecap: square"/>
   </g>
   <g id="line2d_6">
    <path d="M 52.38 437.71392 
L 377.136 437.71392 
" clip-path="url(#p75bd8752c2)" style="fill: none; stroke: #ff0000; stroke-linecap: square"/>
   </g>
   <g id="line2d_7">
    <path d="M 52.38 422.44944 
L 377.136 422.44944 
" clip-path="url(#p75bd8752c2)" style="fill: none; stroke: #008000; stroke-linecap: square"/>
   </g>
   <g id="line2d_8">
    <path d="M 52.38 407.18496 
L 377.136 407.18496 
" clip-path="url(#p75bd8752c2)" style="fill: none; stroke: #0000ff; stroke-linecap: square"/>
   </g>
   <g id="line2d_9">
    <path d="M 52.38 391.92048 
L 377.136 391.92048 
" clip-path="url(#p75bd8752c2)" style="fill: none; stroke: #800080; stroke-linecap: square"/>
   </g>
   <g id="line2d_10">
    <path d="M 52.38 376.656 
L 377.136 376.656 
" clip-path="url(#p75bd8752c2)" style="fill: none; stroke: #ffa500; stroke-linecap: square"/>
   </g>
   <g id="line2d_11">
    <path d="M 52.38 361.39152 
L 377.136 361.39152 
" clip-path="url(#p75bd8752c2)" style="fill: none; stroke: #ff0000; stroke-linecap: square"/>
   </g>
   <g id="line2d_12">
    <path d="M 52.38 346.12704 
L 377.136 346.12704 
" clip-path="url(#p75bd8752c2)" style="fill: none; stroke: #008000; stroke-linecap: square"/>
   </g>
   <g id="line2d_13">
    <path d="M 52.38 330.86256 
L 377.136 330.86256 
" clip-path="url(#p75bd8752c2)" style="fill: none; stroke: #0000ff; stroke-linecap: square"/>
   </g>
   <g id="line2d_14">
    <path d="M 52.38 315.59808 
L 377.136 315.59808 
" clip-path="url(#p75bd8752c2)" style="fill: none; stroke: #800080; stroke-linecap: square"/>
   </g>
   <g id="line2d_15">
    <path d="M 52.38 300.3336 
L 377.136 300.3336 
" clip-path="url(#p75bd8752c2)" style="fill: none; stroke: #ffa500; stroke-linecap: square"/>
   </g>
   <g id="line2d_16">
    <path d="M 52.38 285.06912 
L 377.136 285.06912 
" clip-path="url(#p75bd8752c2)" style="fill: none; stroke: #ff0000; stroke-linecap: square"/>
   </g>
   <g id="line2d_17">
    <path d="M 52.38 269.80464 
L 377.136 269.80464 
" clip-path="url(#p75bd8752c2)" style="fill: none; stroke: #008000; stroke-linecap: square"/>
   </g>
   <g id="line2d_18">
    <path d="M 52.38 254.54016 
L 377.136 254.54016 
" clip-path="url(#p75bd8752c2)" style="fill: none; stroke: #0000ff; stroke-linecap: square"/>
   </g>
   <g id="line2d_19">
    <path d="M 52.38 239.27568 
L 377.136 239.27568 
" clip-path="url(#p75bd8752c2)" style="fill: none; stroke: #800080; stroke-linecap: square"/>
   </g>
   <g id="line2d_20">
    <path d="M 52.38 224.0112 
L 377.136 224.0112 
" clip-path="url(#p75bd8752c2)" style="fill: none; stroke: #ffa500; stroke-linecap: square"/>
   </g>
   <g id="line2d_21">
    <path d="M 52.38 208.74672 
L 377.136 208.74672 
" clip-path="url(#p75bd8752c2)" style="fill: none; stroke: #ff0000; stroke-linecap: square"/>
   </g>
   <g id="line2d_22">
    <path d="M 52.38 193.48224 
L 377.136 193.48224 
" clip-path="url(#p75bd8752c2)" style="fill: none; stroke: #008000; stroke-linecap: square"/>
   </g>
   <g id="line2d_23">
    <path d="M 52.38 178.21776 
L 377.136 178.21776 
" clip-path="url(#p75bd8752c2)" style="fill: none; stroke: #0000ff; stroke-linecap: square"/>
   </g>
   <g id="line2d_24">
    <path d="M 52.38 162.95328 
L 377.136 162.95328 
" clip-path="url(#p75bd8752c2)" style="fill: none; stroke: #800080; stroke-linecap: square"/>
   </g>
   <g id="line2d_25">
    <path d="M 52.38 147.6888 
L 377.136 147.6888 
" clip-path="url(#p75bd8752c2)" style="fill: none; stroke: #ffa500; stroke-linecap: square"/>
   </g>
   <g id="line2d_26">
    <path d="M 52.38 132.42432 
L 377.136 132.42432 
" clip-path="url(#p75bd8752c2)" style="fill: none; stroke: #ff0000; stroke-linecap: square"/>
   </g>
   <g id="line2d_27">
    <path d="M 52.38 117.15984 
L 377.136 117.15984 
" clip-path="url(#p75bd8752c2)" style="fill: none; stroke: #008000; stroke-linecap: square"/>
   </g>
   <g id="line2d_28">
    <path d="M 52.38 101.89536 
L 377.136 101.89536 
" clip-path="url(#p75bd8752c2)" style="fill: none; stroke: #0000ff; stroke-linecap: square"/>
   </g>
   <g id="line2d_29">
    <path d="M 52.38 86.63088 
L 377.136 86.63088 
" clip-path="url(#p75bd8752c2)" style="fill: none; stroke: #800080; stroke-linecap: square"/>
   </g>
   <g id="line2d_30">
    <path d="M 52.38 71.3664 
L 377.136 71.3664 
" clip-path="url(#p75bd8752c2)" style="fill: none; stroke: #ffa500; stroke-linecap: square"/>
   </g>
   <g id="text_1">
    <!-- Ruled Narrow - Pirahansiah.com -->
    <g style="fill: #808080" transform="translate(313.296 299.501725) scale(0.04 -0.04)">
     <defs>
      <path id="DejaVuSans-52" d="M 2841 2188 
Q 3044 2119 3236 1894 
Q 3428 1669 3622 1275 
L 4263 0 
L 3584 0 
L 2988 1197 
Q 2756 1666 2539 1819 
Q 2322 1972 1947 1972 
L 1259 1972 
L 1259 0 
L 628 0 
L 628 4666 
L 2053 4666 
Q 2853 4666 3247 4331 
Q 3641 3997 3641 3322 
Q 3641 2881 3436 2590 
Q 3231 2300 2841 2188 
z
M 1259 4147 
L 1259 2491 
L 2053 2491 
Q 2509 2491 2742 2702 
Q 2975 2913 2975 3322 
Q 2975 3731 2742 3939 
Q 2509 4147 2053 4147 
L 1259 4147 
z
" transform="scale(0.015625)"/>
      <path id="DejaVuSans-75" d="M 544 1381 
L 544 3500 
L 1119 3500 
L 1119 1403 
Q 1119 906 1312 657 
Q 1506 409 1894 409 
Q 2359 409 2629 706 
Q 2900 1003 2900 1516 
L 2900 3500 
L 3475 3500 
L 3475 0 
L 2900 0 
L 2900 538 
Q 2691 219 2414 64 
Q 2138 -91 1772 -91 
Q 1169 -91 856 284 
Q 544 659 544 1381 
z
M 1991 3584 
L 1991 3584 
z
" transform="scale(0.015625)"/>
      <path id="DejaVuSans-6c" d="M 603 4863 
L 1178 4863 
L 1178 0 
L 603 0 
L 603 4863 
z
" transform="scale(0.015625)"/>
      <path id="DejaVuSans-65" d="M 3597 1894 
L 3597 1613 
L 953 1613 
Q 991 1019 1311 708 
Q 1631 397 2203 397 
Q 2534 397 2845 478 
Q 3156 559 3463 722 
L 3463 178 
Q 3153 47 2828 -22 
Q 2503 -91 2169 -91 
Q 1331 -91 842 396 
Q 353 884 353 1716 
Q 353 2575 817 3079 
Q 1281 3584 2069 3584 
Q 2775 3584 3186 3129 
Q 3597 2675 3597 1894 
z
M 3022 2063 
Q 3016 2534 2758 2815 
Q 2500 3097 2075 3097 
Q 1594 3097 1305 2825 
Q 1016 2553 972 2059 
L 3022 2063 
z
" transform="scale(0.015625)"/>
      <path id="DejaVuSans-64" d="M 2906 2969 
L 2906 4863 
L 3481 4863 
L 3481 0 
L 2906 0 
L 2906 525 
Q 2725 213 2448 61 
Q 2172 -91 1784 -91 
Q 1150 -91 751 415 
Q 353 922 353 1747 
Q 353 2572 751 3078 
Q 1150 3584 1784 3584 
Q 2172 3584 2448 3432 
Q 2725 3281 2906 2969 
z
M 947 1747 
Q 947 1113 1208 752 
Q 1469 391 1925 391 
Q 2381 391 2643 752 
Q 2906 1113 2906 1747 
Q 2906 2381 2643 2742 
Q 2381 3103 1925 3103 
Q 1469 3103 1208 2742 
Q 947 2381 947 1747 
z
" transform="scale(0.015625)"/>
      <path id="DejaVuSans-20" transform="scale(0.015625)"/>
      <path id="DejaVuSans-4e" d="M 628 4666 
L 1478 4666 
L 3547 763 
L 3547 4666 
L 4159 4666 
L 4159 0 
L 3309 0 
L 1241 3903 
L 1241 0 
L 628 0 
L 628 4666 
z
" transform="scale(0.015625)"/>
      <path id="DejaVuSans-61" d="M 2194 1759 
Q 1497 1759 1228 1600 
Q 959 1441 959 1056 
Q 959 750 1161 570 
Q 1363 391 1709 391 
Q 2188 391 2477 730 
Q 2766 1069 2766 1631 
L 2766 1759 
L 2194 1759 
z
M 3341 1997 
L 3341 0 
L 2766 0 
L 2766 531 
Q 2569 213 2275 61 
Q 1981 -91 1556 -91 
Q 1019 -91 701 211 
Q 384 513 384 1019 
Q 384 1609 779 1909 
Q 1175 2209 1959 2209 
L 2766 2209 
L 2766 2266 
Q 2766 2663 2505 2880 
Q 2244 3097 1772 3097 
Q 1472 3097 1187 3025 
Q 903 2953 641 2809 
L 641 3341 
Q 956 3463 1253 3523 
Q 1550 3584 1831 3584 
Q 2591 3584 2966 3190 
Q 3341 2797 3341 1997 
z
" transform="scale(0.015625)"/>
      <path id="DejaVuSans-72" d="M 2631 2963 
Q 2534 3019 2420 3045 
Q 2306 3072 2169 3072 
Q 1681 3072 1420 2755 
Q 1159 2438 1159 1844 
L 1159 0 
L 581 0 
L 581 3500 
L 1159 3500 
L 1159 2956 
Q 1341 3275 1631 3429 
Q 1922 3584 2338 3584 
Q 2397 3584 2469 3576 
Q 2541 3569 2628 3553 
L 2631 2963 
z
" transform="scale(0.015625)"/>
      <path id="DejaVuSans-6f" d="M 1959 3097 
Q 1497 3097 1228 2736 
Q 959 2375 959 1747 
Q 959 1119 1226 758 
Q 1494 397 1959 397 
Q 2419 397 2687 759 
Q 2956 1122 2956 1747 
Q 2956 2369 2687 2733 
Q 2419 3097 1959 3097 
z
M 1959 3584 
Q 2709 3584 3137 3096 
Q 3566 2609 3566 1747 
Q 3566 888 3137 398 
Q 2709 -91 1959 -91 
Q 1206 -91 779 398 
Q 353 888 353 1747 
Q 353 2609 779 3096 
Q 1206 3584 1959 3584 
z
" transform="scale(0.015625)"/>
      <path id="DejaVuSans-77" d="M 269 3500 
L 844 3500 
L 1563 769 
L 2278 3500 
L 2956 3500 
L 3675 769 
L 4391 3500 
L 4966 3500 
L 4050 0 
L 3372 0 
L 2619 2869 
L 1863 0 
L 1184 0 
L 269 3500 
z
" transform="scale(0.015625)"/>
      <path id="DejaVuSans-2d" d="M 313 2009 
L 1997 2009 
L 1997 1497 
L 313 1497 
L 313 2009 
z
" transform="scale(0.015625)"/>
      <path id="DejaVuSans-50" d="M 1259 4147 
L 1259 2394 
L 2053 2394 
Q 2494 2394 2734 2622 
Q 2975 2850 2975 3272 
Q 2975 3691 2734 3919 
Q 2494 4147 2053 4147 
L 1259 4147 
z
M 628 4666 
L 2053 4666 
Q 2838 4666 3239 4311 
Q 3641 3956 3641 3272 
Q 3641 2581 3239 2228 
Q 2838 1875 2053 1875 
L 1259 1875 
L 1259 0 
L 628 0 
L 628 4666 
z
" transform="scale(0.015625)"/>
      <path id="DejaVuSans-69" d="M 603 3500 
L 1178 3500 
L 1178 0 
L 603 0 
L 603 3500 
z
M 603 4863 
L 1178 4863 
L 1178 4134 
L 603 4134 
L 603 4863 
z
" transform="scale(0.015625)"/>
      <path id="DejaVuSans-68" d="M 3513 2113 
L 3513 0 
L 2938 0 
L 2938 2094 
Q 2938 2591 2744 2837 
Q 2550 3084 2163 3084 
Q 1697 3084 1428 2787 
Q 1159 2491 1159 1978 
L 1159 0 
L 581 0 
L 581 4863 
L 1159 4863 
L 1159 2956 
Q 1366 3272 1645 3428 
Q 1925 3584 2291 3584 
Q 2894 3584 3203 3211 
Q 3513 2838 3513 2113 
z
" transform="scale(0.015625)"/>
      <path id="DejaVuSans-6e" d="M 3513 2113 
L 3513 0 
L 2938 0 
L 2938 2094 
Q 2938 2591 2744 2837 
Q 2550 3084 2163 3084 
Q 1697 3084 1428 2787 
Q 1159 2491 1159 1978 
L 1159 0 
L 581 0 
L 581 3500 
L 1159 3500 
L 1159 2956 
Q 1366 3272 1645 3428 
Q 1925 3584 2291 3584 
Q 2894 3584 3203 3211 
Q 3513 2838 3513 2113 
z
" transform="scale(0.015625)"/>
      <path id="DejaVuSans-73" d="M 2834 3397 
L 2834 2853 
Q 2591 2978 2328 3040 
Q 2066 3103 1784 3103 
Q 1356 3103 1142 2972 
Q 928 2841 928 2578 
Q 928 2378 1081 2264 
Q 1234 2150 1697 2047 
L 1894 2003 
Q 2506 1872 2764 1633 
Q 3022 1394 3022 966 
Q 3022 478 2636 193 
Q 2250 -91 1575 -91 
Q 1294 -91 989 -36 
Q 684 19 347 128 
L 347 722 
Q 666 556 975 473 
Q 1284 391 1588 391 
Q 1994 391 2212 530 
Q 2431 669 2431 922 
Q 2431 1156 2273 1281 
Q 2116 1406 1581 1522 
L 1381 1569 
Q 847 1681 609 1914 
Q 372 2147 372 2553 
Q 372 3047 722 3315 
Q 1072 3584 1716 3584 
Q 2034 3584 2315 3537 
Q 2597 3491 2834 3397 
z
" transform="scale(0.015625)"/>
      <path id="DejaVuSans-2e" d="M 684 794 
L 1344 794 
L 1344 0 
L 684 0 
L 684 794 
z
" transform="scale(0.015625)"/>
      <path id="DejaVuSans-63" d="M 3122 3366 
L 3122 2828 
Q 2878 2963 2633 3030 
Q 2388 3097 2138 3097 
Q 1578 3097 1268 2742 
Q 959 2388 959 1747 
Q 959 1106 1268 751 
Q 1578 397 2138 397 
Q 2388 397 2633 464 
Q 2878 531 3122 666 
L 3122 134 
Q 2881 22 2623 -34 
Q 2366 -91 2075 -91 
Q 1284 -91 818 406 
Q 353 903 353 1747 
Q 353 2603 823 3093 
Q 1294 3584 2113 3584 
Q 2378 3584 2631 3529 
Q 2884 3475 3122 3366 
z
" transform="scale(0.015625)"/>
      <path id="DejaVuSans-6d" d="M 3328 2828 
Q 3544 3216 3844 3400 
Q 4144 3584 4550 3584 
Q 5097 3584 5394 3201 
Q 5691 2819 5691 2113 
L 5691 0 
L 5113 0 
L 5113 2094 
Q 5113 2597 4934 2840 
Q 4756 3084 4391 3084 
Q 3944 3084 3684 2787 
Q 3425 2491 3425 1978 
L 3425 0 
L 2847 0 
L 2847 2094 
Q 2847 2600 2669 2842 
Q 2491 3084 2119 3084 
Q 1678 3084 1418 2786 
Q 1159 2488 1159 1978 
L 1159 0 
L 581 0 
L 581 3500 
L 1159 3500 
L 1159 2956 
Q 1356 3278 1631 3431 
Q 1906 3584 2284 3584 
Q 2666 3584 2933 3390 
Q 3200 3197 3328 2828 
z
" transform="scale(0.015625)"/>
     </defs>
     <use xlink:href="#DejaVuSans-52"/>
     <use xlink:href="#DejaVuSans-75" x="64.982422"/>
     <use xlink:href="#DejaVuSans-6c" x="128.361328"/>
     <use xlink:href="#DejaVuSans-65" x="156.144531"/>
     <use xlink:href="#DejaVuSans-64" x="217.667969"/>
     <use xlink:href="#DejaVuSans-20" x="281.144531"/>
     <use xlink:href="#DejaVuSans-4e" x="312.931641"/>
     <use xlink:href="#DejaVuSans-61" x="387.736328"/>
     <use xlink:href="#DejaVuSans-72" x="449.015625"/>
     <use xlink:href="#DejaVuSans-72" x="488.378906"/>
     <use xlink:href="#DejaVuSans-6f" x="527.242188"/>
     <use xlink:href="#DejaVuSans-77" x="588.423828"/>
     <use xlink:href="#DejaVuSans-20" x="670.210938"/>
     <use xlink:href="#DejaVuSans-2d" x="701.998047"/>
     <use xlink:href="#DejaVuSans-20" x="738.082031"/>
     <use xlink:href="#DejaVuSans-50" x="769.869141"/>
     <use xlink:href="#DejaVuSans-69" x="827.921875"/>
     <use xlink:href="#DejaVuSans-72" x="855.705078"/>
     <use xlink:href="#DejaVuSans-61" x="896.818359"/>
     <use xlink:href="#DejaVuSans-68" x="958.097656"/>
     <use xlink:href="#DejaVuSans-61" x="1021.476562"/>
     <use xlink:href="#DejaVuSans-6e" x="1082.755859"/>
     <use xlink:href="#DejaVuSans-73" x="1146.134766"/>
     <use xlink:href="#DejaVuSans-69" x="1198.234375"/>
     <use xlink:href="#DejaVuSans-61" x="1226.017578"/>
     <use xlink:href="#DejaVuSans-68" x="1287.296875"/>
     <use xlink:href="#DejaVuSans-2e" x="1350.675781"/>
     <use xlink:href="#DejaVuSans-63" x="1382.462891"/>
     <use xlink:href="#DejaVuSans-6f" x="1437.443359"/>
     <use xlink:href="#DejaVuSans-6d" x="1498.625"/>
    </g>
   </g>
  </g>
 </g>
 <defs>
  <clipPath id="p75bd8752c2">
   <rect x="52.38" y="71.3664" width="324.756" height="457.9344"/>
  </clipPath>
 </defs>
</svg>
