<svg id="svg" xmlns="http://www.w3.org/2000/svg" viewBox="-10.46000000834465 -8.159999966621399 780.0071411132812 874.2399291992188" height="874.2399291992188"><path d="M 319.47,100.72 L 318.77,100.73 L 311.59,99.6 L 306.7,99.6 L 304.41,99.6 L 301.27,99.6 L 294.63,99.6 L 288.17,100.64 L 284.85,100.64 L 280.14,101.17 L 276.28,101.52 L 274.36,101.52 L 273.65,101.52 L 272.93,101.52 L 272.93,101.88 L 272.93,103.45 L 272.93,108.34 L 274.07,121.81 L 274.07,130.39 L 276.64,159.63 L 278.06,185.54 L 280.98,225.48 L 283.8,272.24 L 285.09,294.65 L 286.39,313.56 L 288.9,332.47 L 290.19,354.7 L 290.19,375.36 L 290.19,385.51 L 290.19,397.41 L 289.67,416.13 L 288.66,422.78 L 288.66,428.21 L 288.66,430.13 L 288.66,430.49" fill="none" stroke="#1a85ff" stroke-width="2"></path><path d="M 284.08,305.8 L 284.44,305.81 L 286.36,305.81 L 288.64,305.81 L 290.93,305.81 L 295.82,305.28 L 304.93,305.28 L 318.58,304.15 L 328.73,304.15 L 338.88,304.15 L 355.85,302.92 L 366,301.78 L 376.15,300.56 L 386.29,300.56 L 396.44,300.56 L 409.91,300.03 L 420.06,300.03 L 421.49,300.03 L 425.52,300.03 L 426.59,300.03" fill="none" stroke="#1a85ff" stroke-width="2"></path><rect x="233.23000000000008" y="623.11" fill="none" stroke="#1a85ff" stroke-width="2" width="337.89" height="232.97000000000003" d="M 125.13 496.13 h 337.89 v 232.97000000000003 h -337.89 Z"></rect><path d="M 94.05,285.06 L 96.33,284.2 L 100.37,282.18 L 110.52,277.98 L 117.16,275.49 L 132.56,269.58 L 151.29,262.57 L 163.19,258.07 L 166.33,257.02 L 169.47,255.97 L 175.97,255.97 L 177.9,257.02 L 179.3,258.95 L 183.54,272.6 L 185.91,293.08 L 187.25,315.49 L 187.25,330.89 L 186.23,341.04 L 183.26,351.19 L 178.06,358.57 L 169.66,363.28 L 150.75,365.73 L 121.33,365.73 L 88.41,358.59 L 36.39,341.35 L 22.74,334.63 L 12.34,325.67 L 1.57,310.87 L -0.46,305.8 L 5.7,232.12 L 16.94,221.37 L 22.72,217.62 L 29.37,214.05 L 35.15,211.66 L 48.62,207.85 L 57.02,206.71 L 62.81,206.71 L 69.3,207.73 L 72.44,209.3 L 80.84,212.62 L 91.45,218.31 L 94.59,219.36 L 101.23,222.92 L 107.73,224.65 L 109.16,225.36 L 111.08,225.89 L 112.15,226.24 L 112.51,226.24" fill="none" stroke="#1a85ff" stroke-width="2"></path><path d="M 576.77,145.91 L 575.33,144.84 L 536.56,162.3 L 463.52,151.64 L 400.81,143.81 L 364.2,142.22 L 260.66,140.63 L 194.44,140.63 L 110.89,140.63 L 31.88,137.25 L 7.53,137.25 L 13.31,51 L 58.31,43.98 L 93,41.09 L 125.92,38.23 L 153.59,35.47 L 167.25,32.22 L 176.34,30.2 L 177.06,29.84 L 178.48,28.78 L 179.2,27.7 L 179.72,26.14 L 178.89,17.92 L 172.98,2.52 L 128.09,1.84 L 129.23,13.73 L 132.7,35.97 L 135.13,53.13 L 138.39,66.78 L 139.73,71.67 L 139.73,73.95 L 140.09,75.02 L 140.81,76.09 L 142.91,79.23 L 143.42,80.8 L 145.44,84.48 L 146.84,88.33 L 147.2,89.39 L 147.2,89.75" fill="none" stroke="#1a85ff" stroke-width="2"></path><path d="M 147.2,89.75" fill="none" stroke="#1a85ff" stroke-width="2"></path><rect x="288.55" y="399.34" fill="rgba(240, 240,240, 0.4)" stroke="#BBB" stroke-width="1"></rect><rect x="148.61" y="312.92" fill="rgba(240, 240,240, 0.4)" stroke="#BBB" stroke-width="1"></rect><circle cx="558.81" cy="420.27" fill="none" stroke="#1a85ff" stroke-width="2" r="200.7371380686693" d="M 358.07286193133064 420.27 a 200.7371380686693 200.7371380686693 0 1 0 401.4742761373386 0a 200.7371380686693 200.7371380686693 0 1 0 -401.4742761373386 0 Z"></circle><circle cx="307.58" cy="75.89" fill="none" stroke="#1a85ff" stroke-width="2" d="undefined"></circle></svg>