<?xml version='1.0' encoding='UTF-8'?>
<svg width="45mm" height="45mm" version="1.1" viewBox="0 0 45 45" xmlns="http://www.w3.org/2000/svg"><path d="M2,2H3V3H2zM3,2H4V3H3zM4,2H5V3H4zM5,2H6V3H5zM6,2H7V3H6zM7,2H8V3H7zM8,2H9V3H8zM10,2H11V3H10zM13,2H14V3H13zM14,2H15V3H14zM18,2H19V3H18zM19,2H20V3H19zM22,2H23V3H22zM23,2H24V3H23zM25,2H26V3H25zM26,2H27V3H26zM27,2H28V3H27zM28,2H29V3H28zM32,2H33V3H32zM36,2H37V3H36zM37,2H38V3H37zM38,2H39V3H38zM39,2H40V3H39zM40,2H41V3H40zM41,2H42V3H41zM42,2H43V3H42zM2,3H3V4H2zM8,3H9V4H8zM12,3H13V4H12zM14,3H15V4H14zM15,3H16V4H15zM16,3H17V4H16zM19,3H20V4H19zM20,3H21V4H20zM22,3H23V4H22zM25,3H26V4H25zM30,3H31V4H30zM31,3H32V4H31zM34,3H35V4H34zM36,3H37V4H36zM42,3H43V4H42zM2,4H3V5H2zM4,4H5V5H4zM5,4H6V5H5zM6,4H7V5H6zM8,4H9V5H8zM10,4H11V5H10zM13,4H14V5H13zM15,4H16V5H15zM17,4H18V5H17zM18,4H19V5H18zM19,4H20V5H19zM22,4H23V5H22zM24,4H25V5H24zM26,4H27V5H26zM28,4H29V5H28zM30,4H31V5H30zM31,4H32V5H31zM32,4H33V5H32zM36,4H37V5H36zM38,4H39V5H38zM39,4H40V5H39zM40,4H41V5H40zM42,4H43V5H42zM2,5H3V6H2zM4,5H5V6H4zM5,5H6V6H5zM6,5H7V6H6zM8,5H9V6H8zM11,5H12V6H11zM14,5H15V6H14zM16,5H17V6H16zM17,5H18V6H17zM20,5H21V6H20zM21,5H22V6H21zM22,5H23V6H22zM26,5H27V6H26zM28,5H29V6H28zM29,5H30V6H29zM34,5H35V6H34zM36,5H37V6H36zM38,5H39V6H38zM39,5H40V6H39zM40,5H41V6H40zM42,5H43V6H42zM2,6H3V7H2zM4,6H5V7H4zM5,6H6V7H5zM6,6H7V7H6zM8,6H9V7H8zM10,6H11V7H10zM17,6H18V7H17zM21,6H22V7H21zM22,6H23V7H22zM24,6H25V7H24zM28,6H29V7H28zM30,6H31V7H30zM32,6H33V7H32zM33,6H34V7H33zM34,6H35V7H34zM36,6H37V7H36zM38,6H39V7H38zM39,6H40V7H39zM40,6H41V7H40zM42,6H43V7H42zM2,7H3V8H2zM8,7H9V8H8zM12,7H13V8H12zM14,7H15V8H14zM15,7H16V8H15zM16,7H17V8H16zM17,7H18V8H17zM20,7H21V8H20zM21,7H22V8H21zM24,7H25V8H24zM25,7H26V8H25zM27,7H28V8H27zM30,7H31V8H30zM31,7H32V8H31zM34,7H35V8H34zM36,7H37V8H36zM42,7H43V8H42zM2,8H3V9H2zM3,8H4V9H3zM4,8H5V9H4zM5,8H6V9H5zM6,8H7V9H6zM7,8H8V9H7zM8,8H9V9H8zM10,8H11V9H10zM12,8H13V9H12zM14,8H15V9H14zM16,8H17V9H16zM18,8H19V9H18zM20,8H21V9H20zM22,8H23V9H22zM24,8H25V9H24zM26,8H27V9H26zM28,8H29V9H28zM30,8H31V9H30zM32,8H33V9H32zM34,8H35V9H34zM36,8H37V9H36zM37,8H38V9H37zM38,8H39V9H38zM39,8H40V9H39zM40,8H41V9H40zM41,8H42V9H41zM42,8H43V9H42zM10,9H11V10H10zM11,9H12V10H11zM12,9H13V10H12zM13,9H14V10H13zM14,9H15V10H14zM16,9H17V10H16zM17,9H18V10H17zM18,9H19V10H18zM19,9H20V10H19zM21,9H22V10H21zM23,9H24V10H23zM24,9H25V10H24zM25,9H26V10H25zM27,9H28V10H27zM28,9H29V10H28zM29,9H30V10H29zM30,9H31V10H30zM33,9H34V10H33zM34,9H35V10H34zM7,10H8V11H7zM8,10H9V11H8zM11,10H12V11H11zM13,10H14V11H13zM14,10H15V11H14zM16,10H17V11H16zM20,10H21V11H20zM23,10H24V11H23zM24,10H25V11H24zM25,10H26V11H25zM26,10H27V11H26zM27,10H28V11H27zM31,10H32V11H31zM33,10H34V11H33zM34,10H35V11H34zM36,10H37V11H36zM38,10H39V11H38zM40,10H41V11H40zM42,10H43V11H42zM2,11H3V12H2zM3,11H4V12H3zM4,11H5V12H4zM6,11H7V12H6zM12,11H13V12H12zM14,11H15V12H14zM15,11H16V12H15zM19,11H20V12H19zM20,11H21V12H20zM23,11H24V12H23zM28,11H29V12H28zM29,11H30V12H29zM31,11H32V12H31zM33,11H34V12H33zM37,11H38V12H37zM38,11H39V12H38zM41,11H42V12H41zM42,11H43V12H42zM2,12H3V13H2zM3,12H4V13H3zM5,12H6V13H5zM6,12H7V13H6zM8,12H9V13H8zM11,12H12V13H11zM13,12H14V13H13zM15,12H16V13H15zM16,12H17V13H16zM18,12H19V13H18zM19,12H20V13H19zM20,12H21V13H20zM21,12H22V13H21zM22,12H23V13H22zM23,12H24V13H23zM24,12H25V13H24zM25,12H26V13H25zM27,12H28V13H27zM29,12H30V13H29zM34,12H35V13H34zM36,12H37V13H36zM37,12H38V13H37zM38,12H39V13H38zM2,13H3V14H2zM3,13H4V14H3zM6,13H7V14H6zM10,13H11V14H10zM11,13H12V14H11zM14,13H15V14H14zM16,13H17V14H16zM19,13H20V14H19zM21,13H22V14H21zM22,13H23V14H22zM24,13H25V14H24zM25,13H26V14H25zM26,13H27V14H26zM28,13H29V14H28zM30,13H31V14H30zM33,13H34V14H33zM34,13H35V14H34zM36,13H37V14H36zM38,13H39V14H38zM39,13H40V14H39zM41,13H42V14H41zM3,14H4V15H3zM4,14H5V15H4zM5,14H6V15H5zM6,14H7V15H6zM8,14H9V15H8zM15,14H16V15H15zM20,14H21V15H20zM21,14H22V15H21zM23,14H24V15H23zM24,14H25V15H24zM27,14H28V15H27zM28,14H29V15H28zM30,14H31V15H30zM32,14H33V15H32zM37,14H38V15H37zM41,14H42V15H41zM42,14H43V15H42zM3,15H4V16H3zM6,15H7V16H6zM9,15H10V16H9zM16,15H17V16H16zM18,15H19V16H18zM20,15H21V16H20zM21,15H22V16H21zM22,15H23V16H22zM23,15H24V16H23zM26,15H27V16H26zM30,15H31V16H30zM31,15H32V16H31zM32,15H33V16H32zM37,15H38V16H37zM38,15H39V16H38zM40,15H41V16H40zM41,15H42V16H41zM42,15H43V16H42zM2,16H3V17H2zM5,16H6V17H5zM6,16H7V17H6zM7,16H8V17H7zM8,16H9V17H8zM10,16H11V17H10zM12,16H13V17H12zM14,16H15V17H14zM15,16H16V17H15zM16,16H17V17H16zM17,16H18V17H17zM18,16H19V17H18zM19,16H20V17H19zM22,16H23V17H22zM24,16H25V17H24zM25,16H26V17H25zM32,16H33V17H32zM34,16H35V17H34zM35,16H36V17H35zM37,16H38V17H37zM38,16H39V17H38zM39,16H40V17H39zM40,16H41V17H40zM5,17H6V18H5zM6,17H7V18H6zM7,17H8V18H7zM10,17H11V18H10zM12,17H13V18H12zM13,17H14V18H13zM14,17H15V18H14zM17,17H18V18H17zM18,17H19V18H18zM19,17H20V18H19zM23,17H24V18H23zM25,17H26V18H25zM26,17H27V18H26zM29,17H30V18H29zM32,17H33V18H32zM34,17H35V18H34zM35,17H36V18H35zM39,17H40V18H39zM40,17H41V18H40zM41,17H42V18H41zM42,17H43V18H42zM2,18H3V19H2zM3,18H4V19H3zM4,18H5V19H4zM5,18H6V19H5zM8,18H9V19H8zM10,18H11V19H10zM11,18H12V19H11zM13,18H14V19H13zM16,18H17V19H16zM20,18H21V19H20zM23,18H24V19H23zM24,18H25V19H24zM26,18H27V19H26zM31,18H32V19H31zM32,18H33V19H32zM35,18H36V19H35zM37,18H38V19H37zM40,18H41V19H40zM41,18H42V19H41zM42,18H43V19H42zM4,19H5V20H4zM7,19H8V20H7zM9,19H10V20H9zM11,19H12V20H11zM12,19H13V20H12zM13,19H14V20H13zM16,19H17V20H16zM17,19H18V20H17zM19,19H20V20H19zM22,19H23V20H22zM23,19H24V20H23zM25,19H26V20H25zM27,19H28V20H27zM29,19H30V20H29zM30,19H31V20H30zM33,19H34V20H33zM34,19H35V20H34zM35,19H36V20H35zM36,19H37V20H36zM37,19H38V20H37zM38,19H39V20H38zM42,19H43V20H42zM2,20H3V21H2zM4,20H5V21H4zM5,20H6V21H5zM6,20H7V21H6zM7,20H8V21H7zM8,20H9V21H8zM9,20H10V21H9zM10,20H11V21H10zM11,20H12V21H11zM14,20H15V21H14zM16,20H17V21H16zM19,20H20V21H19zM22,20H23V21H22zM23,20H24V21H23zM24,20H25V21H24zM26,20H27V21H26zM27,20H28V21H27zM29,20H30V21H29zM30,20H31V21H30zM31,20H32V21H31zM32,20H33V21H32zM33,20H34V21H33zM37,20H38V21H37zM38,20H39V21H38zM39,20H40V21H39zM42,20H43V21H42zM2,21H3V22H2zM3,21H4V22H3zM7,21H8V22H7zM13,21H14V22H13zM14,21H15V22H14zM16,21H17V22H16zM17,21H18V22H17zM21,21H22V22H21zM24,21H25V22H24zM26,21H27V22H26zM29,21H30V22H29zM36,21H37V22H36zM38,21H39V22H38zM39,21H40V22H39zM42,21H43V22H42zM2,22H3V23H2zM4,22H5V23H4zM5,22H6V23H5zM6,22H7V23H6zM8,22H9V23H8zM10,22H11V23H10zM11,22H12V23H11zM12,22H13V23H12zM14,22H15V23H14zM15,22H16V23H15zM18,22H19V23H18zM22,22H23V23H22zM23,22H24V23H23zM25,22H26V23H25zM26,22H27V23H26zM29,22H30V23H29zM32,22H33V23H32zM33,22H34V23H33zM35,22H36V23H35zM38,22H39V23H38zM40,22H41V23H40zM42,22H43V23H42zM2,23H3V24H2zM4,23H5V24H4zM5,23H6V24H5zM6,23H7V24H6zM7,23H8V24H7zM9,23H10V24H9zM11,23H12V24H11zM15,23H16V24H15zM17,23H18V24H17zM18,23H19V24H18zM21,23H22V24H21zM22,23H23V24H22zM25,23H26V24H25zM26,23H27V24H26zM28,23H29V24H28zM29,23H30V24H29zM30,23H31V24H30zM33,23H34V24H33zM38,23H39V24H38zM40,23H41V24H40zM3,24H4V25H3zM4,24H5V25H4zM5,24H6V25H5zM6,24H7V25H6zM8,24H9V25H8zM9,24H10V25H9zM11,24H12V25H11zM12,24H13V25H12zM13,24H14V25H13zM17,24H18V25H17zM20,24H21V25H20zM21,24H22V25H21zM23,24H24V25H23zM24,24H25V25H24zM25,24H26V25H25zM26,24H27V25H26zM27,24H28V25H27zM28,24H29V25H28zM29,24H30V25H29zM31,24H32V25H31zM34,24H35V25H34zM36,24H37V25H36zM37,24H38V25H37zM38,24H39V25H38zM40,24H41V25H40zM3,25H4V26H3zM5,25H6V26H5zM6,25H7V26H6zM7,25H8V26H7zM10,25H11V26H10zM11,25H12V26H11zM12,25H13V26H12zM13,25H14V26H13zM15,25H16V26H15zM19,25H20V26H19zM24,25H25V26H24zM25,25H26V26H25zM28,25H29V26H28zM29,25H30V26H29zM30,25H31V26H30zM33,25H34V26H33zM36,25H37V26H36zM38,25H39V26H38zM2,26H3V27H2zM3,26H4V27H3zM6,26H7V27H6zM8,26H9V27H8zM9,26H10V27H9zM10,26H11V27H10zM11,26H12V27H11zM15,26H16V27H15zM16,26H17V27H16zM19,26H20V27H19zM22,26H23V27H22zM23,26H24V27H23zM25,26H26V27H25zM26,26H27V27H26zM30,26H31V27H30zM33,26H34V27H33zM34,26H35V27H34zM36,26H37V27H36zM37,26H38V27H37zM41,26H42V27H41zM42,26H43V27H42zM2,27H3V28H2zM3,27H4V28H3zM4,27H5V28H4zM13,27H14V28H13zM14,27H15V28H14zM15,27H16V28H15zM16,27H17V28H16zM17,27H18V28H17zM19,27H20V28H19zM20,27H21V28H20zM21,27H22V28H21zM23,27H24V28H23zM24,27H25V28H24zM25,27H26V28H25zM27,27H28V28H27zM29,27H30V28H29zM30,27H31V28H30zM31,27H32V28H31zM33,27H34V28H33zM35,27H36V28H35zM36,27H37V28H36zM37,27H38V28H37zM38,27H39V28H38zM39,27H40V28H39zM41,27H42V28H41zM2,28H3V29H2zM4,28H5V29H4zM8,28H9V29H8zM10,28H11V29H10zM11,28H12V29H11zM16,28H17V29H16zM22,28H23V29H22zM27,28H28V29H27zM28,28H29V29H28zM29,28H30V29H29zM31,28H32V29H31zM34,28H35V29H34zM35,28H36V29H35zM38,28H39V29H38zM3,29H4V30H3zM4,29H5V30H4zM5,29H6V30H5zM6,29H7V30H6zM7,29H8V30H7zM9,29H10V30H9zM11,29H12V30H11zM14,29H15V30H14zM16,29H17V30H16zM19,29H20V30H19zM20,29H21V30H20zM22,29H23V30H22zM23,29H24V30H23zM24,29H25V30H24zM27,29H28V30H27zM28,29H29V30H28zM29,29H30V30H29zM33,29H34V30H33zM35,29H36V30H35zM36,29H37V30H36zM39,29H40V30H39zM40,29H41V30H40zM41,29H42V30H41zM42,29H43V30H42zM2,30H3V31H2zM4,30H5V31H4zM5,30H6V31H5zM7,30H8V31H7zM8,30H9V31H8zM9,30H10V31H9zM10,30H11V31H10zM11,30H12V31H11zM12,30H13V31H12zM13,30H14V31H13zM14,30H15V31H14zM15,30H16V31H15zM17,30H18V31H17zM18,30H19V31H18zM19,30H20V31H19zM20,30H21V31H20zM25,30H26V31H25zM26,30H27V31H26zM27,30H28V31H27zM30,30H31V31H30zM31,30H32V31H31zM33,30H34V31H33zM35,30H36V31H35zM39,30H40V31H39zM40,30H41V31H40zM42,30H43V31H42zM2,31H3V32H2zM4,31H5V32H4zM5,31H6V32H5zM9,31H10V32H9zM12,31H13V32H12zM15,31H16V32H15zM18,31H19V32H18zM20,31H21V32H20zM24,31H25V32H24zM28,31H29V32H28zM31,31H32V32H31zM32,31H33V32H32zM34,31H35V32H34zM35,31H36V32H35zM37,31H38V32H37zM38,31H39V32H38zM39,31H40V32H39zM42,31H43V32H42zM2,32H3V33H2zM3,32H4V33H3zM4,32H5V33H4zM5,32H6V33H5zM6,32H7V33H6zM7,32H8V33H7zM8,32H9V33H8zM10,32H11V33H10zM12,32H13V33H12zM14,32H15V33H14zM17,32H18V33H17zM18,32H19V33H18zM19,32H20V33H19zM20,32H21V33H20zM22,32H23V33H22zM23,32H24V33H23zM26,32H27V33H26zM27,32H28V33H27zM29,32H30V33H29zM34,32H35V33H34zM35,32H36V33H35zM37,32H38V33H37zM38,32H39V33H38zM40,32H41V33H40zM42,32H43V33H42zM2,33H3V34H2zM5,33H6V34H5zM10,33H11V34H10zM13,33H14V34H13zM14,33H15V34H14zM15,33H16V34H15zM18,33H19V34H18zM20,33H21V34H20zM21,33H22V34H21zM24,33H25V34H24zM25,33H26V34H25zM27,33H28V34H27zM33,33H34V34H33zM34,33H35V34H34zM36,33H37V34H36zM37,33H38V34H37zM38,33H39V34H38zM39,33H40V34H39zM2,34H3V35H2zM4,34H5V35H4zM5,34H6V35H5zM8,34H9V35H8zM11,34H12V35H11zM12,34H13V35H12zM13,34H14V35H13zM14,34H15V35H14zM17,34H18V35H17zM19,34H20V35H19zM21,34H22V35H21zM24,34H25V35H24zM26,34H27V35H26zM28,34H29V35H28zM29,34H30V35H29zM30,34H31V35H30zM31,34H32V35H31zM33,34H34V35H33zM34,34H35V35H34zM35,34H36V35H35zM36,34H37V35H36zM37,34H38V35H37zM38,34H39V35H38zM40,34H41V35H40zM41,34H42V35H41zM10,35H11V36H10zM12,35H13V36H12zM14,35H15V36H14zM16,35H17V36H16zM19,35H20V36H19zM21,35H22V36H21zM22,35H23V36H22zM23,35H24V36H23zM24,35H25V36H24zM26,35H27V36H26zM28,35H29V36H28zM29,35H30V36H29zM31,35H32V36H31zM32,35H33V36H32zM34,35H35V36H34zM38,35H39V36H38zM40,35H41V36H40zM2,36H3V37H2zM3,36H4V37H3zM4,36H5V37H4zM5,36H6V37H5zM6,36H7V37H6zM7,36H8V37H7zM8,36H9V37H8zM11,36H12V37H11zM12,36H13V37H12zM13,36H14V37H13zM16,36H17V37H16zM18,36H19V37H18zM19,36H20V37H19zM20,36H21V37H20zM22,36H23V37H22zM23,36H24V37H23zM24,36H25V37H24zM27,36H28V37H27zM28,36H29V37H28zM29,36H30V37H29zM31,36H32V37H31zM33,36H34V37H33zM34,36H35V37H34zM36,36H37V37H36zM38,36H39V37H38zM39,36H40V37H39zM2,37H3V38H2zM8,37H9V38H8zM10,37H11V38H10zM14,37H15V38H14zM16,37H17V38H16zM18,37H19V38H18zM20,37H21V38H20zM21,37H22V38H21zM23,37H24V38H23zM25,37H26V38H25zM28,37H29V38H28zM29,37H30V38H29zM30,37H31V38H30zM31,37H32V38H31zM32,37H33V38H32zM33,37H34V38H33zM34,37H35V38H34zM38,37H39V38H38zM39,37H40V38H39zM41,37H42V38H41zM2,38H3V39H2zM4,38H5V39H4zM5,38H6V39H5zM6,38H7V39H6zM8,38H9V39H8zM11,38H12V39H11zM12,38H13V39H12zM13,38H14V39H13zM16,38H17V39H16zM17,38H18V39H17zM20,38H21V39H20zM22,38H23V39H22zM23,38H24V39H23zM28,38H29V39H28zM29,38H30V39H29zM30,38H31V39H30zM31,38H32V39H31zM33,38H34V39H33zM34,38H35V39H34zM35,38H36V39H35zM36,38H37V39H36zM37,38H38V39H37zM38,38H39V39H38zM39,38H40V39H39zM41,38H42V39H41zM2,39H3V40H2zM4,39H5V40H4zM5,39H6V40H5zM6,39H7V40H6zM8,39H9V40H8zM12,39H13V40H12zM14,39H15V40H14zM16,39H17V40H16zM22,39H23V40H22zM24,39H25V40H24zM25,39H26V40H25zM29,39H30V40H29zM30,39H31V40H30zM32,39H33V40H32zM33,39H34V40H33zM34,39H35V40H34zM37,39H38V40H37zM39,39H40V40H39zM40,39H41V40H40zM41,39H42V40H41zM42,39H43V40H42zM2,40H3V41H2zM4,40H5V41H4zM5,40H6V41H5zM6,40H7V41H6zM8,40H9V41H8zM11,40H12V41H11zM12,40H13V41H12zM15,40H16V41H15zM16,40H17V41H16zM18,40H19V41H18zM19,40H20V41H19zM21,40H22V41H21zM25,40H26V41H25zM26,40H27V41H26zM27,40H28V41H27zM28,40H29V41H28zM29,40H30V41H29zM30,40H31V41H30zM31,40H32V41H31zM35,40H36V41H35zM36,40H37V41H36zM37,40H38V41H37zM38,40H39V41H38zM39,40H40V41H39zM41,40H42V41H41zM2,41H3V42H2zM8,41H9V42H8zM12,41H13V42H12zM14,41H15V42H14zM15,41H16V42H15zM19,41H20V42H19zM22,41H23V42H22zM23,41H24V42H23zM24,41H25V42H24zM25,41H26V42H25zM26,41H27V42H26zM30,41H31V42H30zM35,41H36V42H35zM38,41H39V42H38zM40,41H41V42H40zM42,41H43V42H42zM2,42H3V43H2zM3,42H4V43H3zM4,42H5V43H4zM5,42H6V43H5zM6,42H7V43H6zM7,42H8V43H7zM8,42H9V43H8zM11,42H12V43H11zM12,42H13V43H12zM13,42H14V43H13zM15,42H16V43H15zM16,42H17V43H16zM17,42H18V43H17zM19,42H20V43H19zM20,42H21V43H20zM22,42H23V43H22zM23,42H24V43H23zM24,42H25V43H24zM25,42H26V43H25zM27,42H28V43H27zM31,42H32V43H31zM32,42H33V43H32zM33,42H34V43H33zM35,42H36V43H35zM36,42H37V43H36zM37,42H38V43H37zM38,42H39V43H38zM39,42H40V43H39zM40,42H41V43H40z" id="qr-path" fill="#000000" fill-opacity="1" fill-rule="nonzero" stroke="none" /></svg>